<?xml version="1.0" encoding="UTF-8"?><svg id="a" xmlns="http://www.w3.org/2000/svg" viewBox="0 0 383.3 383.3"><g id="b"><circle cx="191.6" cy="191.7" r="155.6" style="fill:#649377;"/></g><g id="c"><path d="M265.8,63.6c-1.7-.3-3.2-1.2-4.3-2.4,1.5,.8,2.9,1.6,4.3,2.4Z" style="fill:#642b36;"/><g id="d"><path d="M100.6,263.8c-5.2,18.6-.9,24.1-7.2,35.3-1.3,2.4-3.2,5.2-3,9.1,.3,4.4,3.2,9.5,7.6,11,3,1,4.2-.4,6.9,.7,4.4,1.6,5.8,7,6.9,9.3,4.8,10,26.6,9.7,40.3,10,30.8,.7,22.7,4.8,53.5,5.3,0,0,56.3,.9,74-14.5,.3-.3,2.9-2.6,6.7-5.8,5.1-4.3,4.8-3.8,5.8-4.9,3.4-3.6,2.2-4.8,7.1-12.9,1.6-2.7,2.6-4.1,2.6-6.4,0-2.9-1.5-5.1-1.9-5.7-4.4-6.6-10.7-30.6-13.4-37.2-7.8-19-48.8-49-97.3-48.2-34.4,.5-72.5,16.4-82.7,38.6-3.8,8.4-6,16.3-6,16.3h0Z" style="fill:#ffe4cc;"/><path d="M254.6,219.4c4.5,11.3,16.3,28.5,29.4,28.1,15.1-.4,27.6-24.1,30.7-42.6,8.9-53-51.5-105.6-57.5-101.9-1.9,1.1,2.6,7,3.6,23.2,.9,13.4-1.3,24.1-4.3,39.4-3.5,17.4-5.5,19.3-5.6,29.4-.1,5.8-.2,14.7,3.6,24.5h0Z" style="fill:#fcf3e0;"/><rect x="194" y="210.6" width="2.2" height="32.8" rx="1" ry="1" style="fill:none; stroke:#20313a; stroke-miterlimit:10; stroke-width:5px;"/><ellipse cx="163.9" cy="157.2" rx="11" ry="9" style="fill:#20313a;"/><ellipse cx="157.6" cy="150.6" rx="6.3" ry="6.6" style="fill:#ffe4cc;"/><ellipse cx="220.1" cy="150.6" rx="6.3" ry="6.6" style="fill:#ffe4cc;"/><g><path d="M259.1,233.8c-8.4-12.2-13.1-25.5-12.5-40.4,.4-9.5,2.4-18.7,5.1-27.9,6-19.9,6.4-39.9,1.5-60-.3-1.1-1.1-2.3-2-2.8-16.9-8.3-34.7-13.3-53.6-13.7-20.2-.4-39.1,4.5-57.3,13-2,.9-3,2.2-3.5,4.3-4.7,20.6-4.1,40.8,2.3,61,3,9.5,4.7,19.2,4.6,29.2,0,3.2-1.5,5.1-3.9,5.1-2.4,0-3.9-1.9-3.9-5.1,0-9-1.4-17.7-4.1-26.2-6.5-20.5-7.7-41.2-3.3-62.2,.1-.5,0-1,0-2.4-3.2,2.5-6.2,4.3-8.4,6.8-3.7,4.2-7.2,8.7-10.4,13.3-5.8,8.4-11.1,17.2-17.2,25.4-8.2,10.9-13.3,22.9-14.4,36.6-1.6,19.2,4,35.9,16.8,50.3,4.8,5.3,12.4,6.7,18.7,3.4,2.2-1.2,4.3-2.9,5.9-4.9,5.5-6.8,10.2-14.1,13.3-22.4,.5-1.3,2.2-2.6,3.5-2.9,1-.2,2.8,.8,3.4,1.8,.6,1,.6,2.9,0,4-3.3,6.4-6.7,12.8-10.2,19-1.2,2.1-2.9,4-4.5,6.3,3.6,3.2,7,6.3,10.4,9.5,1.4,1.4,2.6,1.1,4.1,0,4.5-3.2,7.6-2.6,10.8,1.8,3.8,5.2,8.5,9.5,13.7,13.3,1.5,1.1,2.6,1.1,4.2,0,4.8-3.4,7.7-2.8,11.1,1.9,3.9,5.3,8.6,9.6,14,13.4,1.2,.9,2.2,.9,3.4,0,5.3-3.7,10-8,13.8-13.2,3.6-5,6.4-5.5,11.5-2,1.4,1,2.4,1,3.8,0,5.5-3.9,10.4-8.4,14.2-13.9,1.8-2.6,4.1-3.9,7.2-3.1,1.3,.3,2.5,1.2,3.7,2,1.2,.9,2.1,1,3.3,0,3.5-3.2,7.1-6.4,10.9-9.8-2.3-3.1-4.2-5.8-6.1-8.5h0Zm-36.6-80.1c.3-2.1,1.6-3.3,3.7-3.4,2.1,0,3.6,1.1,3.8,3.2,.2,2.3,.2,4.6,0,6.9-.1,2.1-1.9,3.5-3.9,3.3-2.1-.1-3.3-1.4-3.6-3.4-.1-1.1,0-2.1,0-3.2h0c0-1.2-.1-2.3,0-3.5Zm-1.5,80.5c-1.5,.4-2.3,.9-2.3,2.8-.3,13.2-10.5,23.4-23.5,23.5-12.8,.1-23.3-10.1-23.8-23.3,0-1.2,.2-2.2-1.6-2.7-13.4-3.9-20.8-15-17.9-28.9,3.9-18.5,14.6-32.6,31.3-41.7,8.8-4.8,18.2-4,26.6,1.4,14.5,9.4,24.3,22.4,28.5,39.4,.1,.6,.2,1.1,.3,1.7,.1,1.3,.2,2.6,.3,3.8,.2,11.7-6.6,20.9-17.8,24.1Z" style="fill:#ffe4cc;"/><path d="M318.2,177.7c-2.5-13-18.9-38.6-26.9-48.9-1.5-1.8-3.5-2.1-5.3-.9-1.7,1.2-2,3.4-.8,5.3,.8,1.3,11.6,17.1,12.5,18.3,7.6,9.7,12.4,20.6,14,32.8,2.6,20.3-2.6,38.2-16.2,53.6-6.7,7.5-18.2,7-24.5-.8-2-2.5-3.9-5.2-5.8-7.9-5.9-8.8-10-18.3-10.8-29.1-.8-10.8,1.2-21.2,4.3-31.4,5.2-16.9,6.7-34.2,4.3-51.8-.5-3.5-1.1-6.9-1.7-10.8,5.6,2.7,9.6,6.6,12.9,11.1,3.7,5,7.1,10.3,10.6,15.4,1.5,2.1,3.5,2.7,5.3,1.6,1.9-1.2,2.5-3.4,1.1-5.4-4.7-6.8-9.3-13.6-14.4-20-4.4-5.5-10.3-9.4-17.3-11.2-2-.5-4-1.2-5.8-2.1-34-16.2-68.7-18.8-104.2-5.6-7.8,2.9-15.5,5.9-23.1,9.1-7.3,3-12.9,8.3-17.3,14.6-8.8,12.6-17.3,25.4-26.1,38-17.2,25-17.2,59.3,.2,84.2,4.5,6.5,9.4,12.6,17.7,14.3-1,3.2-2.2,6.2-2.8,9.2-1.1,5.3-1.9,10.6-2.8,16-1.3,7.1-3.4,14-6.7,20.5-1.6,3.2-.9,6.2,1.3,7.9,3.4,3.4,6.1-4.2,7.3-8.3s5.3-17.1,6.8-26.3c1-5.6,2.8-11,4.4-16.5,.2-.7,1-1.6,1.7-1.8,3-1.1,6.1-2,9-2.9,4.1,3.6,8.3,7.3,12.5,11,2.3,2,5.1,2.5,7.9,1.7,1.5-.4,2.8-1.3,4.4-2,.3,.4,.7,.8,1.1,1.2,4.4,5.7,9.6,10.3,15.5,14.3,3.5,2.4,7.1,2.5,10.7,.2,.5-.3,1-.6,1.6-.9,.6,.7,1.1,1.3,1.6,2,4.3,5.5,9.5,10,15.3,13.9,3.5,2.3,7,2.4,10.5,0,2.1-1.4,4.1-2.9,6-4.5,4.1-3.4,8-6.9,12.3-10.6,5,2.8,7.2,2.9,12.9-1.5,3.8-2.9,7.3-6.3,10.8-9.6,1.5-1.4,2.7-3.1,4-4.7,5.9,3.5,8.7,3.4,13.9-.9,3.7-3.1,7.2-6.6,10.8-9.8,2.2,.8,4.4,2.1,6.7,2.4,2.7,.4,4.1,1.8,4.8,4.2,.3,.9,.7,1.7,1,2.6,.8,3.1,11.9,34.1,12.8,37.2,.6,2.2,2.4,3.3,4.3,2.9,2.1-.5,3.2-2,3.1-4.2,0-.8-.2-1.7-.4-2.5-1.1-4-12.6-35.9-13.8-40.1,5.1-1.4,9.5-4.1,12.9-8.3,15.7-18.8,20.6-40.2,16.1-64.2h0Zm-63.9,74.5c-1.1,1.1-2.1,.9-3.3,0-1.1-.8-2.4-1.7-3.7-2-3.1-.8-5.4,.6-7.2,3.1-3.9,5.5-8.8,10-14.2,13.9-1.4,1-2.4,.9-3.8,0-5.1-3.5-7.9-3-11.5,2-3.8,5.2-8.6,9.5-13.8,13.2-1.2,.8-2.2,.8-3.4,0-5.4-3.8-10.1-8.1-14-13.4-3.4-4.7-6.4-5.2-11.1-1.9-1.6,1.1-2.7,1.1-4.2,0-5.2-3.8-9.9-8.1-13.7-13.3-3.2-4.4-6.3-5-10.8-1.8-1.5,1.1-2.7,1.3-4.1,0-3.4-3.2-6.9-6.3-10.4-9.5,1.7-2.3,3.3-4.1,4.5-6.3,3.5-6.3,7-12.6,10.2-19,.6-1.1,.5-2.9,0-4-.6-1-2.4-2-3.4-1.8-1.4,.3-3,1.6-3.5,2.9-3.2,8.2-7.8,15.6-13.3,22.4-1.6,1.9-3.7,3.7-5.9,4.9-6.3,3.3-13.9,2-18.7-3.4-12.8-14.3-18.3-31.1-16.8-50.3,1.1-13.7,6.2-25.6,14.4-36.6,6.1-8.2,11.3-17,17.2-25.4,3.2-4.6,6.7-9.1,10.4-13.3,2.2-2.5,5.2-4.3,8.4-6.8,0,1.3,0,1.9,0,2.4-4.3,21-3.2,41.8,3.3,62.2,2.7,8.5,4.1,17.3,4.1,26.2,0,3.2,1.4,5.1,3.9,5.1,2.4,0,3.9-1.9,3.9-5.1,0-10-1.6-19.7-4.6-29.2-6.4-20.1-7-40.4-2.3-61,.5-2.1,1.5-3.4,3.5-4.3,18.2-8.5,37.1-13.4,57.3-13,18.9,.4,36.7,5.4,53.6,13.7,.9,.4,1.7,1.8,2,2.8,4.9,20.1,4.6,40.2-1.5,60-2.8,9.1-4.8,18.3-5.1,27.9-.6,14.9,4.2,28.3,12.5,40.4,1.9,2.7,3.9,5.4,6.1,8.5-3.7,3.3-7.3,6.5-10.9,9.8h0Z" style="fill:#20313a;"/><path d="M238.8,210.2c.2,11.7-6.6,20.9-17.8,24.1-1.5,.4-2.3,.9-2.3,2.8-.3,13.2-10.5,23.4-23.5,23.5-12.8,.1-23.3-10.1-23.8-23.3,0-1.2,.2-2.2-1.6-2.7-13.4-3.9-20.8-15-17.9-28.9,3.9-18.5,14.6-32.6,31.3-41.7,8.8-4.8,18.2-4,26.6,1.4,14.5,9.4,24.3,22.4,28.5,39.4,.1,.6,.2,1.1,.3,1.7,.1,1.3,.2,2.6,.3,3.8h0Zm-7.6,0c0-.7-.1-1.8-.2-2.9-.1-.8-.2-1.6-.5-2.4-4.1-13.9-12.3-25-24.5-32.9-7-4.5-14.5-4.3-21.7-.1-1.8,1-3.5,2.2-5.1,3.6-9.3,8.3-16.9,17.9-19.7,30.4-2.9,12.7,5.1,22.2,18.1,21.9,5.4-.1,10-2.2,14.3-5.2,2.7-1.9,3.7-1.9,6.4,0,3.6,2.6,7.5,4.2,11.8,5,11.6,2,21.1-5.7,21-17.4h0Zm-52,25.3c-.4,6.7,2.2,11.8,7.7,15.1,5.7,3.4,11.6,3.2,17.2-.5,5.1-3.4,7.4-8.3,6.9-14.6-5.4-.6-10.3-2.3-14.9-5.1-.5-.3-1.6-.3-2.2,0-4.5,2.7-9.3,4.4-14.7,5h0Z" style="fill:#20313a;"/><path d="M231.2,210.1c0,11.7-9.4,19.4-21,17.4-4.3-.7-8.3-2.4-11.8-5-2.7-2-3.7-2-6.4,0-4.3,3.1-8.9,5.1-14.3,5.2-12.9,.3-21-9.2-18.1-21.9,2.8-12.5,10.4-22.1,19.7-30.4,1.5-1.4,3.3-2.6,5.1-3.6,7.2-4.2,14.7-4.4,21.7,.1,12.1,7.9,20.3,18.9,24.5,32.9,.2,.8,.4,1.6,.5,2.4,.1,1.1,.2,2.1,.2,2.9h0Zm-35.9-30.9v.3c-2.2,.2-4.3,.3-6.3,.7-7.7,1.4-12.4,6.2-12.6,12.9-.4,9.6,8.7,19.3,18.3,19.5,9,.2,17.7-7.5,19-16.6,.9-6.8-1.8-12-8.2-14.5-3.2-1.2-6.7-1.6-10.1-2.4h0Z" style="fill:#fcf3e0;"/><path d="M179.2,235.3c5.5-.6,10.3-2.3,14.7-5,.6-.3,1.6-.4,2.2,0,4.5,2.8,9.4,4.4,14.9,5.1,.5,6.3-1.9,11.2-6.9,14.6-5.5,3.7-11.5,3.9-17.2,.5-5.5-3.3-8.1-8.3-7.7-15.1h0Z" style="fill:#be8072;"/><path d="M195.3,179.2c2.1,0,6.9,1.2,10.1,2.4,6.4,2.5,9.2,7.6,8.2,14.5-1.2,9.1-10,16.8-19,16.6-9.6-.2-18.7-9.9-18.3-19.5,.3-6.7,4.9-11.5,12.6-12.9,2-.4,4.2-1.1,6.3-1.1h0Z" style="fill:#20313a;"/></g><path d="M136.8,173.8c1.3,9,5.6,20.1,.5,39.5" style="fill:none; stroke:#20313a; stroke-linecap:round; stroke-linejoin:round; stroke-width:8px;"/><ellipse cx="162" cy="154.8" rx="11.7" ry="10.9" style="fill:#20313a;"/><circle cx="154.9" cy="148.8" r="6.1" style="fill:#ffe4cc;"/><ellipse cx="227.1" cy="155.5" rx="11.7" ry="10.9" style="fill:#20313a;"/><circle cx="220.1" cy="149.4" r="6.1" style="fill:#ffe4cc;"/></g><g><path d="M382.9,154.7c-1.4-4.4-5.2-6.1-10.6-4.7-12.4,3.3-23.1-2.1-28.2-14-3.6-8.5-7.8-16.7-11.6-25-.2-.5-.4-1-.6-1.6,11.2-2.9,13.9-4.1,18.3-8.3,4.5-4.3,8.9-8.7,13.3-13.2,3.7-3.8,3.6-7.7-.1-11.5-3.8-3.9-7.7-7.8-11.6-11.7-12.9-12.7-30.7-12.7-43.7,0-2.3,2.2-4.4,4.7-6.6,7.1-1.2-.9-1.7-1.4-2.4-1.8-3.7-2.4-7.8-2-10.4,1.2-2,2.5-2.2,5.6-.6,8.3,31.5,27.1,51.4,67.3,51.4,112.1,0,81.7-66.2,147.9-147.9,147.9S43.7,273.4,43.7,191.7,109.9,43.7,191.6,43.7s30.4,2.4,44.4,6.8c3.5,0,6.2-2,7.1-5.2,1.2-4.3-1.2-8-6.1-9.5-18.4-5.4-37.1-7.5-56.2-6-5.7,.4-11.3,1.1-17.2,1.7,.4-1.2,.7-2.2,.9-3.1,2.1-7.5,2.1-15.1-.6-22.4-.6-1.7-1.8-3.4-3.1-4.4-2.6-2-5.6-1.9-8.4,0-3.1,2.3-3.6,5.4-2.7,9,3.6,13.5-1.9,23.8-14.7,29-7.9,3.2-15.6,7.2-23.4,10.8-.7,.3-1.5,.7-2.2,1-.9-3.4-1.5-6.6-2.8-9.5-1.4-3-3.2-6-5.4-8.4-4.2-4.7-8.8-9.1-13.4-13.6-3.8-3.7-7.7-3.6-11.5,0-3.9,3.8-7.8,7.7-11.7,11.6-12.8,12.9-12.8,30.7,0,43.7,2.2,2.3,4.6,4.4,7,6.7C36.8,122,23.8,167.7,31.5,219.8c-8-2.7-15.6-3.3-23.5-1.2-3.6,.9-6.5,2.5-8,6v4.5c3,4.6,6.8,5.6,12.1,4,10.2-2.9,20.9,1.9,25.5,11.3,2.4,4.9,4.2,10.1,6.4,15.1,2.2,4.8,4.8,9.5,7.3,14.5-1,.2-1.8,.5-2.6,.6-6.1,.9-11.4,3.5-15.8,7.8-4.4,4.2-8.7,8.6-13,12.9-3.9,4-3.9,7.8,0,11.8,4.2,4.3,8.4,8.6,12.7,12.7,11.6,11,28.8,11.2,40.7,.5,2.9-2.7,5.4-5.8,8.3-8.9,40,35,85.9,48.1,138.1,40.4-2.7,8-3.3,15.7-1.2,23.5,.9,3.6,2.5,6.5,6,8h4.5c4.6-3,5.6-6.8,4-12.1-2.9-10,1.8-20.8,11-25.4,9.8-4.8,19.9-8.9,30.1-13.4,0,.3,.3,.9,.4,1.5,.9,7.1,4.1,13,9.2,17.9,3.6,3.6,7.2,7.2,10.9,10.8,4.8,4.8,8.4,4.8,13.1,.1,3.6-3.6,7.2-7.2,10.9-10.9,12.8-13,12.9-30.7,.2-43.7-2.2-2.3-4.7-4.4-7.3-6.8,17.1-19.1,29.3-40.3,36.2-64.4,6.9-24,8.2-48.4,4-73.5,8.8,3.1,16.9,3.5,25,.9,5.2-1.6,7.7-5.4,6.4-9.7h0Zm-70.4-72.5c12.1-15.8,22.7-15.9,34.8-.1-11.2,14.5-21.4,17.1-34.8,.1ZM81.9,36.1c13.2,10,18.5,20.3,.2,34.9-16.6-13.7-14.9-22.8-.2-34.9ZM36,301.3c11.6-15,21.8-16.6,34.8,0-12.4,15.7-23.1,15.8-34.8,0Zm265.4,46c-14.4-10.4-17.7-21.4-.1-34.8,17.1,14.3,14,23.3,.1,34.8Z" style="fill:#20313a;"/><path d="M274.5,56.4c0,4-3.4,7.3-7.5,7.3-.5,0-.9,0-1.3-.1-1.7-.3-3.2-1.2-4.3-2.4h0c-1.1-1.3-1.7-2.9-1.8-4.8,0-4.1,3.1-7.5,7.1-7.6,4.1-.1,7.8,3.4,7.7,7.5h0Z" style="fill:#20313a;"/><path d="M82.1,71c-16.6-13.7-14.9-22.8-.2-34.9,13.2,10,18.5,20.3,.2,34.9Z" style="fill:#649377;"/><path d="M312.5,82.2c12.1-15.8,22.7-15.8,34.8-.1-11.2,14.5-21.4,17.1-34.8,.1Z" style="fill:#649377;"/><path d="M70.8,301.2c-12.4,15.7-23.1,15.8-34.8,0,11.6-15,21.8-16.6,34.8,0Z" style="fill:#649377;"/><path d="M301.3,312.5c17.1,14.3,14,23.3,.1,34.8-14.4-10.4-17.7-21.4-.1-34.8Z" style="fill:#649377;"/></g></g></svg>